#!OML:ASF E:/inclinewalkrobotboard/Project1/Captureday1/Session1/subject1.ASF
:FULLY-SPECIFIED
:DEGREES
76
root 0 0 0 1.3833321850126852 -8.725079920781713 0.9237860519322163
lowerback 1.4496524977129417 -1.263310526764431 -2.9443909323507067
upperback -1.064711455351338 -1.557524269390388 2.228198029860999
thorax -1.6836481914567663 -0.7581448808420334 3.931429711577766
lowerneck -26.430211829040676 -1.885001582842683 -7.20329833821886
upperneck 11.960072476618862 -0.7208961305084558 4.574624889588226
head 8.003094626574525 -0.18676673428497986 2.6214740458015595
rclavicle -6.3102515787363656E-15 -1.7376734905465393E-15
rhumerus -31.357431358030283 -1.3813089054574688 -80.94772338165326
rradius 30.875269455744473
rwrist 17.759167950795785
rhand -18.443624620192015 9.92461469551755
rfingers 7.125019999999955
rthumb 7.845018077300586 -19.908582984997697
lclavicle -2.069854309851325E-15 -7.692248825861222E-16
lhumerus -10.79478966186615 8.90961403822455 89.63830619086936
lradius 59.86469812969699
lwrist -5.053285489253632
lhand -33.520342211207954 17.310521251814414
lfingers 7.125020000000008
lthumb -6.711981279325858 46.94991895709065
rfemur 12.537309555549632 7.5385962895505765 35.31302338625617
rtibia 29.780509701703995
rfoot -17.357415784503353 -4.286803552496851
rtoes -4.527119148455416
lfemur -31.552443178549847 -4.074229934083743 -9.392363564608624
ltibia 24.99615067160534
lfoot -4.604536889608122 3.488193043683019
ltoes -1.8214092244554907
77
root 0 0 0 1.3832268347804249 -8.74698011766234 0.9197387937334042
lowerback 1.4113139287814656 -1.261013503992309 -2.9507509074509692
upperback -1.083578273880561 -1.554866704566149 2.220891037128759
thorax -1.6810441967090972 -0.7566665665810353 3.9286262829813645
lowerneck -26.343642239691647 -1.8782114413673157 -7.2263510204716015
upperneck 12.18037977159113 -0.7058180679036594 4.557959209470718
head 8.0747132921448 -0.1919710895063914 2.62492046348883
rclavicle -7.563157300495991E-15 -1.6289849158466302E-15
rhumerus -31.370202879441845 -1.3989546217603444 -80.91735778254443
rradius 30.853154823715446
rwrist 17.75343530151055
rhand -18.441415625287092 9.939256430784361
rfingers 7.125019999999954
rthumb 7.846872838107101 -19.897139409599234
lclavicle -2.812191749138225E-15 -7.354127934170429E-16
lhumerus -10.301379428999548 9.324690657264973 89.3418304847274
lradius 59.8714118303499
lwrist -5.210103471896565
lhand -33.607097177596394 17.24286129256652
lfingers 7.125020000000008
lthumb -6.793294089792981 46.876172159321904
rfemur 11.164835008615457 5.443745123178843 31.507695201675162
rtibia 43.05483499848279
rfoot -8.382801286895916 -1.1367338775079578
rtoes -4.31309690128648
lfemur -28.56960429060141 -4.546555416709138 -11.127872566520512
ltibia 24.509014135556974
lfoot -3.6581149474181176 1.9554421410111111
ltoes -0.12224380294926362
78
root 0 0 0 1.3849122866078656 -8.76013235938056 0.9232529308457059
lowerback 1.3932036209409622 -1.2632869515942389 -2.9553551312168516
upperback -1.0900326831310907 -1.5584871117536092 2.2201128427583745
thorax -1.677184637164678 -0.7580368469714518 3.930621894832025
lowerneck -26.35755170939407 -1.8789154160131762 -7.233255536849731
upperneck 12.200167926631813 -0.7012871104703262 4.556560861100062
head 8.085520091359243 -0.19197747915668156 2.6264533061292057
rclavicle -7.681016123403743E-15 -1.5146300877851984E-15
rhumerus -31.438300867156077 -1.6963572010923667 -80.87153755661772
rradius 30.79132023374066
rwrist 17.766409707579893
rhand -18.384490417729072 9.962945856415734
rfingers 7.125019999999952
rthumb 7.901344670343795 -19.874549987520055
lclavicle -2.9444795729796698E-15 -7.578879714441441E-16
lhumerus -9.979954193555574 9.593566169446241 89.17626451608676
lradius 59.903216390038594
lwrist -5.316069521261108
lhand -33.66512834422421 17.201123807111983
lfingers 7.125020000000008
lthumb -6.848706524429551 46.829766733480625
rfemur 2.7976067969192524 3.381969030508655 28.696029331991234
rtibia 53.82828401408776
rfoot 0.4126530939679398 0.6325995965806781
rtoes 1.5993833453913742
lfemur -24.09772518501157 -4.416331841511117 -14.186375844592511
ltibia 27.51757292783602
lfoot -2.086839822720604 -1.149607060259425
ltoes 2.9508992253944495
79
root 0 0 0 1.3941015834404245 -8.76954790650579 0.9370581714406468
lowerback 1.3928560475394998 -1.2732139907782059 -2.9578873437096354
upperback -1.0769409020144405 -1.5728693729384589 2.2255668487049247
thorax -1.662741806713604 -0.76487881068663 3.9372241395266263
lowerneck -26.499928906666963 -1.891977464495752 -7.226994592458089
upperneck 12.0070434382278 -0.7127117236262358 4.573801345920184
head 8.035639183906326 -0.18814184360465885 2.6265990265056582
rclavicle -7.091002982425725E-15 -1.4053436059169524E-15
rhumerus -31.624492154308054 -2.4647061616789223 -80.75641169977659
rradius 30.633045534868025
rwrist 17.846605959810695
rhand -18.229138222813834 9.999813496471537
rfingers 7.125019999999949
rthumb 8.050116338110758 -19.832110914010332
lclavicle -2.863354013327811E-15 -8.956052783356144E-16
lhumerus -9.948793250568306 9.706844256538236 89.2118967942838
lradius 59.88721620001667
lwrist -5.3484220068213535
lhand -33.67628489395995 17.17311500439389
lfingers 7.125020000000009
lthumb -6.8594358091017185 46.80010416712839
rfemur -6.914550451696192 2.0085434514235443 25.897234502563734
rtibia 62.16476527125846
rfoot 5.905565493481875 -0.5436632043858043
rtoes 7.895888344621525
lfemur -19.280214044096084 -3.773197166307023 -17.397424338596693
ltibia 30.85049472079488
lfoot -0.8670811482354299 -3.8218566327205337
ltoes 5.699172734544584
80
root 0 0 0 1.4143239849428695 -8.762820272950206 0.9628044282492471
lowerback 1.4044279615101114 -1.2864727026596876 -2.967206278388354
upperback -1.0510540604511334 -1.5914902788048708 2.238018704653705
thorax -1.6415891512183702 -0.773616070856598 3.9546757356304596
lowerneck -26.748085866009692 -1.9226694066624015 -7.220127221957401
upperneck 11.550072701791823 -0.7555331844652584 4.642311472795988
head 7.90225700022551 -0.18211954172369485 2.636474070522051
rclavicle -5.856309848093445E-15 -1.0007206637709753E-15
rhumerus -31.959294467917864 -3.726058408769925 -80.54176594071271
rradius 30.35466094148751
rwrist 18.044726163416797
rhand -17.96210863941959 10.03811249467361
rfingers 7.125019999999944
rthumb 8.30623227365205 -19.784728077771675
lclavicle -2.774969038622777E-15 -9.250913556902477E-16
lhumerus -10.252619761340828 9.49798479061263 89.41062038101573
lradius 59.84421805502088
lwrist -5.234865484907468
lhand -33.60381378116838 17.218056267022135
lfingers 7.125020000000009
lthumb -6.790920929341678 46.84864575648863
rfemur -14.76572777556078 0.8168803814130827 23.33067116986207
rtibia 68.63349576272364
rfoot 4.352825560829471 -3.6610332839968853
rtoes 10.756266157740278
lfemur -14.951078341434366 -2.939877249537746 -20.516101867962877
ltibia 32.149552875116974
lfoot -2.22163786667182 -4.423051554977224
ltoes 7.527099012565397
81
root 0 0 0 1.4426467168931283 -8.754206752522618 0.9945677812444499
lowerback 1.3985057380634132 -1.2987231282052687 -2.9887661652551714
upperback -1.0311572036029188 -1.6089382838955195 2.2514336925433756
thorax -1.6164211092324914 -0.7812871268091174 3.98072941240424
lowerneck -27.00524226515792 -1.9615120671183162 -7.23142625179938
upperneck 11.029302604291416 -0.8135687175521765 4.747632134638953
head 7.747768665750755 -0.1777303010653823 2.659328514984459
rclavicle -4.299876016033411E-15 -7.977653996265444E-16
rhumerus -32.29598611357099 -4.887980418069802 -80.35127851173624
rradius 30.107394032142476
rwrist 18.29672512383952
rhand -17.70154029278363 10.013926574991707
rfingers 7.1250199999999415
rthumb 8.556404116270448 -19.804628843961282
lclavicle -2.5170587940228744E-15 -7.887096653392245E-16
lhumerus -10.432092199894454 9.178347069813817 89.49089847152318
lradius 59.9210735833405
lwrist -5.115639541723118
lhand -33.54927890711126 17.309420494245778
lfingers 7.125020000000009
lthumb -6.741853965388693 46.94343975455151
rfemur -20.09707946054693 -0.12480149330667967 21.21470434885238
rtibia 71.11626317921075
rfoot 1.6184830610696501 -5.159058392948233
rtoes 9.178495957894434
lfemur -9.96410252279668 -2.5426153936551423 -24.14694910607664
ltibia 30.03250218979204
lfoot -6.782154828724824 -3.0746393472598474
ltoes 8.663856644224271
82
root 0 0 0 1.5286611147005873 -8.801490473142106 1.074009376342847
lowerback 1.2942070844184201 -1.3346211463290014 -3.060643428290453
upperback -1.0073523268630955 -1.6633719909540983 2.274681515245198
thorax -1.5277481382564213 -0.8053535059426852 4.0467640553021065
lowerneck -27.52584954568255 -2.0302058820786772 -7.310627953112504
upperneck 10.185648571588741 -0.8980228445423831 4.963222956366218
head 7.520066748091508 -0.16701340225949407 2.723163270161707
rclavicle -3.8004610730817775E-15 -7.770664451498093E-16
rhumerus -32.570241485441606 -5.503844178461515 -80.24593307770182
rradius 29.98337055765267
rwrist 18.639488321541798
rhand -17.522105837512846 9.831224749446514
rfingers 7.125019999999945
rthumb 8.728396372724264 -19.9879670580486
lclavicle -2.4325113234419977E-15 -6.000798011672735E-16
lhumerus -9.919237676173239 8.826470708411524 89.14323281430438
lradius 60.493055944873824
lwrist -5.148193678057403
lhand -33.652542210148674 17.428993391991668
lfingers 7.125020000000008
lthumb -6.8443359731796845 47.06055182355908
rfemur -25.9266420782972 -0.8227916397191919 18.990710023091186
rtibia 68.75002170050551
rfoot -2.0735809011685546 -6.286785931430526
rtoes 4.752758067971772
lfemur -1.7306300457645378 -2.3322543379634944 -28.67844051934263
ltibia 25.771630396289595
lfoot -14.308347203258325 -1.129531705052782
ltoes 7.505788950850711
